<?xml version="1.0" encoding="utf-8"?>
<svg version="1.1" id="Layer_1" xmlns="http://www.w3.org/2000/svg" xmlns:xlink="http://www.w3.org/1999/xlink" x="0px" y="0px"
	 viewBox="0 0 138.8 138.3" style="enable-background:new 0 0 138.8 138.3;" xml:space="preserve">
<style type="text/css">
	.st0{clip-path:url(#SVGID_2_);}
	.st1{clip-path:url(#SVGID_4_);}
	.st2{fill:#D6221B;}
	.st3{fill:#FFFFFF;}
	
	path.spin {
    transform-origin: center ;
    transform-box: fill-box ;
	 animation: 5s infinite rotatesun cubic-bezier(.18,.89,.32,1.05);
	}
	@keyframes rotatesun {
    0%, 50% {transform: rotate(0deg);}
    100% {transform: rotate(-360deg);}
	}
	
</style>
<g>
	<g>
		<defs>
			<circle id="SVGID_1_" cx="69.3" cy="69.2" r="68.2"/>
		</defs>
		<clipPath id="SVGID_2_">
			<use xlink:href="#SVGID_1_"  style="overflow:visible;"/>
		</clipPath>
		<g class="st0">
			<g>
				<defs>
					<circle id="SVGID_3_" cx="69.3" cy="69.2" r="68.2"/>
				</defs>
				<clipPath id="SVGID_4_">
					<use xlink:href="#SVGID_3_"  style="overflow:visible;"/>
				</clipPath>
				<g class="st1">
					<circle id="SVGID_55_" class="st2" cx="69.3" cy="69.2" r="68.2"/>
				</g>
			</g>
			<g>
				<path class="st3" d="M91.6,97.4c-4.1,0-7.2-1.1-9.4-3.3c-2.2-2.2-3.4-5.6-3.7-10.1c-2.6,4.5-5.6,7.8-8.8,10.1
					c-3.3,2.2-6.8,3.3-10.8,3.3c-5.3,0-9.5-1.9-12.7-5.8c-3.2-3.9-4.8-9-4.8-15.5c0-4.6,1-9.1,3.1-13.7c2.1-4.6,5-8.6,8.8-12.2
					c2.7-2.7,5.8-4.8,9.1-6.3c3.3-1.5,6.6-2.3,9.8-2.3c3.7,0,6.7,1,9.1,3.1c2.4,2.1,4,5.2,4.9,9.2l3.4-11.4h9.1L87.8,81.2
					c0,0.1,0,0.2-0.1,0.3c-0.7,2.5-1.1,4.7-1.1,6.6c0,2,0.5,3.6,1.6,4.7c1.1,1.2,2.5,1.7,4.3,1.7 M72.7,44.2c-2.3,0-4.4,0.7-6.3,2
					c-1.9,1.3-3.8,3.4-5.8,6.3c-3,4.6-5.5,9.5-7.3,14.8c-1.8,5.3-2.7,10.1-2.7,14.3c0,3.9,0.9,7,2.6,9.3c1.7,2.3,4,3.4,6.9,3.4
					c2.8,0,5.5-0.9,8-2.8c2.5-1.9,5-4.7,7.4-8.5c2.4-4,4.3-8.3,5.8-12.8c1.4-4.6,2.2-8.8,2.2-12.5c0-3.9-1-7.2-3-9.7
					C78.3,45.4,75.8,44.2,72.7,44.2z"/>
			</g>
			<g>
				<path class="st3 spin" d="M87.8,92.8c1.1,1.2,2.5,1.8,4.3,1.8c1.4,0,3.1-0.3,5-1.1c1.9-0.7,3.7-1.7,5.4-3c5.2-3.8,9.2-8.6,12-14.6
					c2.8-5.9,4.2-12.6,4.3-19.9c0-5.9-1-11.3-3.1-16c-2.1-4.7-5.3-9.1-9.6-12.9c-3.8-3.4-8.3-6-13.6-7.9c-5.3-1.9-10.9-2.8-16.9-2.9
					c-7.9-0.1-15.1,1.1-21.7,3.5c-6.5,2.4-12.4,6.1-17.6,11c-5.5,5.3-9.7,11.5-12.6,18.5c-2.9,7.1-4.4,14.9-4.4,23.4
					c-0.1,7.4,1.1,13.8,3.5,19.3c2.4,5.5,6.2,10.5,11.4,15c4.8,4.1,10.3,7.3,16.5,9.4c6.2,2.1,13,3.2,20.3,3.3
					c6.9,0.1,13.6-1,20.2-3.1c6.5-2.2,12.8-5.4,18.8-9.6l1.9,2.3c-6.3,4.6-12.9,8.1-19.9,10.4c-7,2.3-14.2,3.4-21.7,3.4
					c-7.9-0.1-15.1-1.1-21.7-3.1c-6.5-2-12.3-5-17.3-8.9c-6.3-4.8-11.2-10.7-14.4-17.5c-3.3-6.9-4.9-14.4-4.8-22.8
					c0.1-8.6,1.9-16.7,5.6-24.1c3.7-7.5,9-14,16-19.7c5.6-4.6,11.7-8.1,18.5-10.4c6.8-2.3,14.1-3.4,21.8-3.4
					c14.7,0.1,26.3,4.1,35,12.1c8.7,8,13,18.5,12.9,31.7c0,6.6-1.3,12.9-3.8,18.8c-2.5,5.9-6,10.9-10.4,14.9c-2.4,2.2-5,3.9-7.9,5
					c-2.8,1.2-5.7,1.7-8.5,1.7c-4.1,0-7.2-1.2-9.4-3.4"/>
			</g>
		</g>
	</g>
</g>
</svg>
