<?xml version="1.0" encoding="utf-8"?>
<!-- Generator: Adobe Illustrator 22.1.0, SVG Export Plug-In . SVG Version: 6.00 Build 0)  -->
<svg version="1.1" id="Layer_1" xmlns="http://www.w3.org/2000/svg" xmlns:xlink="http://www.w3.org/1999/xlink" x="0px" y="0px"
	 viewBox="0 0 138.8 138.3" style="enable-background:new 0 0 138.8 138.3;" xml:space="preserve">
<style type="text/css">
	.st0{clip-path:url(#SVGID_1_);}
	.st1{fill:#D6221B;}
	.st2{fill:none;stroke:#FFFFFF;stroke-width:7;stroke-miterlimit:10;}
	.st3{fill:#FFFFFF;}
	path.st3 {
	transform-origin: center;
	transform-box: fill-box;
	animation: 2s infinite ringingfoo cubic-bezier(0,.49,.97,.53);
	}
	@keyframes ringingfoo {
	0%,20%,80%,100% {transform: rotate(0deg) translateY(0px);}
	30%,40%,50%,60%,70% {transform: rotate(15deg)translateY(-10px);}
	25%,35%,45%,55%,65%,75% {transform: rotate(-15deg)translateY(-10px);}
	}
</style>
<g>
	<defs>
		<circle id="SVGID_56_" cx="69.4" cy="69.2" r="68.2"/>
	</defs>
	<clipPath id="SVGID_1_">
		<use xlink:href="#SVGID_56_"  style="overflow:visible;"/>
	</clipPath>
	<g class="st0">
		<g>
			<g>
				<circle id="SVGID_57_" class="st1" cx="69.5" cy="69.1" r="68.2"/>
			</g>
		</g>
		<g>
			<polygon class="st2" points="107.3,141.1 31.7,141.1 42,73.1 97.3,73.1"/>
			<rect x="49.2" y="55.8" class="st3" width="10.4" height="17.3"/>
			<rect x="80.3" y="55.8" class="st3" width="10.4" height="17.3"/>
		</g>
		<path class="st3" d="M124.9,81.6c0,0-12.3,1.9-15.8-0.9c-4.6-3.7-4.5-16.6-9.4-19.8c-7-4.7-54.4-5-61.2-0.2
			c-4.8,3.4-4.9,16.5-9.6,20.2c-3.4,2.7-15.2,0.7-15.2,0.7s-5.3-20.3,1.4-25c23-16.1,86.9-14.8,107.8-0.4
			C131.4,62,124.9,81.6,124.9,81.6z"/>
	</g>
</g>
</svg>
